<?xml version="1.0" encoding="UTF-8"?>
<svg width="300px" height="80px" viewBox="0 0 300 80" version="1.1" xmlns="http://www.w3.org/2000/svg" xmlns:xlink="http://www.w3.org/1999/xlink">
    <!-- Generator: Sketch 58 (84663) - https://sketch.com -->
    <title>画板</title>
    <desc>Created with Sketch.</desc>
    <defs>
        <polygon id="path-1" points="0.232791367 0.213669065 0.664446043 0.213669065 0.664446043 0.431654676 0.232791367 0.431654676"></polygon>
    </defs>
    <g id="画板" stroke="none" stroke-width="1" fill="none" fill-rule="evenodd">
        <g id="编组-5" transform="translate(0.000000, 13.500000)">
            <g id="编组" transform="translate(0.000000, 0.000000)">
                <path d="M22.0365324,51.9492086 L44.9858849,51.9492086 L47.7985468,47.0771223 C39.2280432,47.3728058 30.643295,49.5660432 22.0391223,51.9448921 C22.038259,51.9461871 22.0373957,51.9479137 22.0365324,51.9492086" id="Fill-1" fill="#3177E6"></path>
                <path d="M33.3982446,32.7410072 C32.184,34.548777 29.7451511,38.3227338 29.7498993,38.3218705 C28.1614101,40.798705 26.7947914,43.3679137 25.4035683,45.9595683 C33.9611223,43.5733813 42.5018417,41.5001439 51.0063022,41.5217266 L57.3391079,30.5520863 C49.3923453,29.6451799 41.4097554,30.8982734 33.3982446,32.7410072" id="Fill-3" fill="#5B3AED"></path>
                <path d="M45.6192518,16.2342302 C44.1101871,18.0260288 42.5579568,19.963295 41.0087482,21.9912086 C39.6408345,23.7916403 38.2733525,25.6697698 36.9067338,27.6130791 C44.6096115,26.1903453 52.282705,24.9735108 59.9696115,25.9533669 L54.2588201,16.0615683 C51.3835683,15.9316403 48.5044317,16.0171079 45.6192518,16.2342302" id="Fill-5" fill="#3177E6"></path>
                <g transform="translate(21.582734, 51.517554)">
                    <mask id="mask-2" fill="white">
                        <use xlink:href="#path-1"></use>
                    </mask>
                    <g id="Clip-8"></g>
                    <path d="M0.453798561,0.431654676 C0.454661871,0.430359712 0.45552518,0.428633094 0.456388489,0.427338129 C0.451208633,0.428633094 0.446028777,0.430359712 0.440848921,0.431654676 L0.453798561,0.431654676 Z" id="Fill-7" fill="#0052D9" mask="url(#mask-2)"></path>
                </g>
                <path d="M29.7359137,38.3252374 C22.9774964,40.0250935 16.2108777,41.614446 9.43519424,42.323223 L14.9927482,51.9491223 L22.0235396,51.9491223 C22.0287194,51.9478273 22.0338993,51.9461007 22.0390791,51.9448058 C23.2498705,49.9578993 24.3337554,47.9524317 25.4033957,45.959482 C26.7946187,43.368259 28.1616691,40.7986187 29.7501583,38.3217842 C29.7449784,38.3230791 29.7406619,38.3239424 29.7359137,38.3252374" id="Fill-9" fill="#94C0FF"></path>
                <path d="M36.9069065,27.6132086 L36.8909353,27.6162302 C38.2381295,25.6945036 39.622446,23.806446 41.0089209,21.9913381 C41.3257554,21.5743597 41.6425899,21.1612662 41.9594245,20.7529209 C29.256259,22.4445755 14.1945324,26.7140719 0,25.9806906 L6.33582734,36.9546475 C15.3720863,36.7694676 24.3936691,34.764 33.3997122,32.7378129 C34.5682014,30.9874532 35.7371223,29.2768058 36.9069065,27.6132086" id="Fill-11" fill="#5B3AED"></path>
                <path d="M36.9069065,27.6132086 C38.2735252,25.6698993 39.6405755,23.7917698 41.0089209,21.9913381 C39.622446,23.806446 38.2381295,25.6945036 36.8909353,27.6162302 L36.9069065,27.6132086 Z" id="Fill-13" fill="#0052D9"></path>
                <path d="M45.6220144,16.2318129 C47.3076259,14.2470647 49.0869065,12.1302302 51.0543885,10.5171367 C39.7605755,9.54936691 27.9660432,12.3348345 10.8189928,7.22965468 L3.26676259,20.310518 C17.4742446,21.5938273 32.351223,17.3390072 45.6220144,16.2318129" id="Fill-15" fill="#3177E6"></path>
                <path d="M44.9856691,0.000172661871 L15.023223,0.000172661871 C26.053295,4.85326619 38.1292662,7.2036259 49.3881151,7.62535252 L44.9856691,0.000172661871 Z" id="Fill-17" fill="#639BF2"></path>
            </g>
            <path d="M92.378,47.4 L95.046,27.85 L112.986,27.85 L113.63,23.342 L95.644,23.342 L97.116,12.486 C102.145333,11.9033333 106.607333,11.3053333 110.502,10.692 L110.502,10.692 L111.1,6 C105.978667,6.85866667 100.428,7.61766667 94.448,8.277 C88.468,8.93633333 82.7026667,9.41933333 77.152,9.726 L77.152,9.726 L76.554,14.326 C81.3686667,14.0193333 86.3366667,13.6206667 91.458,13.13 L91.458,13.13 L90.032,23.342 L72.598,23.342 L72,27.85 L89.388,27.85 L86.628,47.4 L92.378,47.4 Z M126.832,47.4 L128.58,34.566 L129.5,38.2 L134.468,38.2 L137.458,16.534 C137.672667,15.0926667 137.603667,14.119 137.251,13.613 C136.898333,13.107 136.047333,12.854 134.698,12.854 L134.698,12.854 L131.616,12.854 L132.536,6.184 L127.982,6.184 L127.062,12.854 L120.852,12.854 L117.264,38.2 L121.588,38.2 L124.532,16.81 L126.51,16.81 L122.278,47.4 L126.832,47.4 Z M136.722,47.4 C137.580667,45.192 138.370333,42.8766667 139.091,40.454 C139.811667,38.0313333 140.524667,35.348 141.23,32.404 C141.935333,29.46 142.625333,26.0483333 143.3,22.169 C143.974667,18.2896667 144.496,14.7706667 144.864,11.612 L144.864,11.612 L152.776,11.612 C153.174667,11.612 153.343333,11.842 153.282,12.302 L153.282,12.302 L148.222,47.4 L156.226,47.4 L157.836,43.26 L153.558,43.306 L158.204,10.876 C158.418667,9.52666667 158.334333,8.63733333 157.951,8.208 C157.567667,7.77866667 156.747333,7.564 155.49,7.564 L155.49,7.564 L140.724,7.564 C140.202667,13.4213333 139.474333,18.8953333 138.539,23.986 C137.603667,29.0766667 136.545667,33.5386667 135.365,37.372 C134.184333,41.2053333 132.919333,44.548 131.57,47.4 L131.57,47.4 L136.722,47.4 Z M130.742,34.06 L128.626,34.06 L130.972,16.81 L132.536,16.81 C132.750667,16.81 132.896333,16.856 132.973,16.948 C133.049667,17.04 133.072667,17.2086667 133.042,17.454 L133.042,17.454 L130.742,34.06 Z M149.878,33.968 C149.234,28.6626667 148.774,23.4033333 148.498,18.19 L148.498,18.19 L144.312,18.19 C144.649333,25.9486667 144.940667,31.208 145.186,33.968 L145.186,33.968 L149.878,33.968 Z M182.584,43.628 L185.528,26.792 C185.926667,24.5226667 186.126,23.02 186.126,22.284 C186.126,20.628 185.566333,19.4243333 184.447,18.673 C183.327667,17.9216667 181.48,17.546 178.904,17.546 L178.904,17.546 L166.944,17.546 L167.726,22.192 L176.972,22.192 C178.26,22.192 179.149333,22.33 179.64,22.606 C180.130667,22.882 180.376,23.3573333 180.376,24.032 C180.376,24.4613333 180.268667,25.2433333 180.054,26.378 L180.054,26.378 L179.916,27.206 L173.016,27.206 C171.268,27.206 169.895667,27.2673333 168.899,27.39 C167.902333,27.5126667 167.059,27.781 166.369,28.195 C165.679,28.609 165.119333,29.253 164.69,30.127 C164.260667,31.001 163.908,32.2046667 163.632,33.738 L163.632,33.738 L163.356,35.302 C163.08,36.958 162.942,38.1846667 162.942,38.982 C162.942,40.086 163.149,40.983 163.563,41.673 C163.977,42.363 164.613333,42.8613333 165.472,43.168 C166.330667,43.4746667 167.434667,43.628 168.784,43.628 L168.784,43.628 L182.584,43.628 Z M177.846,38.982 L170.394,38.982 C169.627333,38.982 169.152,38.8516667 168.968,38.591 C168.784,38.3303333 168.692,38.0006667 168.692,37.602 C168.692,37.1726667 168.753333,36.636 168.876,35.992 L168.876,35.992 L169.244,33.922 C169.397333,33.002 169.650333,32.3886667 170.003,32.082 C170.355667,31.7753333 171.007333,31.622 171.958,31.622 L171.958,31.622 L179.134,31.622 L177.846,38.982 Z M195.74,43.628 L197.81,31.898 L206.504,31.898 C208.190667,31.898 209.616667,31.7523333 210.782,31.461 C211.947333,31.1696667 212.913333,30.6866667 213.68,30.012 C214.446667,29.3373333 215.075333,28.4173333 215.566,27.252 C216.056667,26.0866667 216.455333,24.6146667 216.762,22.836 L216.762,22.836 L217.544,18.466 C217.973333,15.9513333 218.188,14.2033333 218.188,13.222 C218.188,12.1486667 217.988667,11.3283333 217.59,10.761 C217.191333,10.1936667 216.67,9.772 216.026,9.496 C215.382,9.22 214.623,9.036 213.749,8.944 C212.875,8.852 211.978,8.806 211.058,8.806 L211.058,8.806 L195.694,8.806 L189.576,43.628 L195.74,43.628 Z M205.768,26.976 L198.684,26.976 L200.984,13.728 L208.344,13.728 C209.662667,13.728 210.567333,13.843 211.058,14.073 C211.548667,14.303 211.794,14.7553333 211.794,15.43 C211.794,15.9206667 211.656,16.9326667 211.38,18.466 L211.38,18.466 L210.966,20.904 C210.659333,22.744 210.322,24.055 209.954,24.837 C209.586,25.619 209.08,26.171 208.436,26.493 C207.792,26.815 206.902667,26.976 205.768,26.976 L205.768,26.976 Z M238.98,43.628 L241.924,26.792 C242.322667,24.5226667 242.522,23.02 242.522,22.284 C242.522,20.628 241.962333,19.4243333 240.843,18.673 C239.723667,17.9216667 237.876,17.546 235.3,17.546 L235.3,17.546 L223.34,17.546 L224.122,22.192 L233.368,22.192 C234.656,22.192 235.545333,22.33 236.036,22.606 C236.526667,22.882 236.772,23.3573333 236.772,24.032 C236.772,24.4613333 236.664667,25.2433333 236.45,26.378 L236.45,26.378 L236.312,27.206 L229.412,27.206 C227.664,27.206 226.291667,27.2673333 225.295,27.39 C224.298333,27.5126667 223.455,27.781 222.765,28.195 C222.075,28.609 221.515333,29.253 221.086,30.127 C220.656667,31.001 220.304,32.2046667 220.028,33.738 L220.028,33.738 L219.752,35.302 C219.476,36.958 219.338,38.1846667 219.338,38.982 C219.338,40.086 219.545,40.983 219.959,41.673 C220.373,42.363 221.009333,42.8613333 221.868,43.168 C222.726667,43.4746667 223.830667,43.628 225.18,43.628 L225.18,43.628 L238.98,43.628 Z M234.242,38.982 L226.79,38.982 C226.023333,38.982 225.548,38.8516667 225.364,38.591 C225.18,38.3303333 225.088,38.0006667 225.088,37.602 C225.088,37.1726667 225.149333,36.636 225.272,35.992 L225.64,33.922 C225.793333,33.002 226.046333,32.3886667 226.399,32.082 C226.751667,31.7753333 227.403333,31.622 228.354,31.622 L228.354,31.622 L235.53,31.622 L234.242,38.982 Z M266.212,43.628 L269.156,26.792 C269.554667,24.5226667 269.754,23.02 269.754,22.284 C269.754,20.628 269.194333,19.4243333 268.075,18.673 C266.955667,17.9216667 265.108,17.546 262.532,17.546 L262.532,17.546 L250.572,17.546 L251.354,22.192 L260.6,22.192 C261.888,22.192 262.777333,22.33 263.268,22.606 C263.758667,22.882 264.004,23.3573333 264.004,24.032 C264.004,24.4613333 263.896667,25.2433333 263.682,26.378 L263.682,26.378 L263.544,27.206 L256.644,27.206 C254.896,27.206 253.523667,27.2673333 252.527,27.39 C251.530333,27.5126667 250.687,27.781 249.997,28.195 C249.307,28.609 248.747333,29.253 248.318,30.127 C247.888667,31.001 247.536,32.2046667 247.26,33.738 L247.26,33.738 L246.984,35.302 C246.708,36.958 246.57,38.1846667 246.57,38.982 C246.57,40.086 246.777,40.983 247.191,41.673 C247.605,42.363 248.241333,42.8613333 249.1,43.168 C249.958667,43.4746667 251.062667,43.628 252.412,43.628 L252.412,43.628 L266.212,43.628 Z M261.474,38.982 L254.022,38.982 C253.255333,38.982 252.78,38.8516667 252.596,38.591 C252.412,38.3303333 252.32,38.0006667 252.32,37.602 C252.32,37.1726667 252.381333,36.636 252.504,35.992 L252.872,33.922 C253.025333,33.002 253.278333,32.3886667 253.631,32.082 C253.983667,31.7753333 254.635333,31.622 255.586,31.622 L255.586,31.622 L262.762,31.622 L261.474,38.982 Z M285.394,43.628 C287.908667,43.628 289.771667,43.4363333 290.983,43.053 C292.194333,42.6696667 293.145,41.9796667 293.835,40.983 C294.525,39.9863333 295.038667,38.5373333 295.376,36.636 L295.376,36.636 L296.204,32.036 C296.326667,31.392 296.457,30.541 296.595,29.483 C296.733,28.425 296.802,27.62 296.802,27.068 C296.802,25.6573333 296.349667,24.6376667 295.445,24.009 C294.540333,23.3803333 292.861333,23.066 290.408,23.066 L290.408,23.066 L284.52,23.066 C283.692,23.066 283.163,22.9663333 282.933,22.767 C282.703,22.5676667 282.588,22.33 282.588,22.054 C282.588,21.6553333 282.710667,20.812 282.956,19.524 L282.956,19.524 L283.508,16.672 C283.692,15.752 283.883667,15.1156667 284.083,14.763 C284.282333,14.4103333 284.558333,14.1726667 284.911,14.05 C285.263667,13.9273333 285.777333,13.866 286.452,13.866 L286.452,13.866 L297.63,13.866 L299.746,8.806 L286.13,8.806 C283.922,8.806 282.296667,9.02833333 281.254,9.473 C280.211333,9.91766667 279.421667,10.6153333 278.885,11.566 C278.348333,12.5166667 277.926667,13.866 277.62,15.614 L277.62,15.614 L276.746,20.49 C276.47,22.0846667 276.332,23.2653333 276.332,24.032 C276.332,25.504 276.715333,26.5926667 277.482,27.298 C278.248667,28.0033333 279.521333,28.356 281.3,28.356 L281.3,28.356 L288.154,28.356 C289.227333,28.356 289.879,28.448 290.109,28.632 C290.339,28.816 290.454,29.092 290.454,29.46 C290.454,30.1653333 290.316,31.208 290.04,32.588 L290.04,32.588 L289.58,34.98 C289.334667,36.2373333 289.097,37.0576667 288.867,37.441 C288.637,37.8243333 288.315,38.1003333 287.901,38.269 C287.487,38.4376667 286.682,38.522 285.486,38.522 L285.486,38.522 L273.756,38.522 L274.676,43.628 L285.394,43.628 Z" id="千帆aPaaS" fill="#000000" fill-rule="nonzero"></path>
        </g>
    </g>
</svg>